<?xml version="1.0" encoding="UTF-8" standalone="no"?>
<!-- Created with Inkscape (http://www.inkscape.org/) -->

<svg
   xmlns:dc="http://purl.org/dc/elements/1.1/"
   xmlns:cc="http://creativecommons.org/ns#"
   xmlns:rdf="http://www.w3.org/1999/02/22-rdf-syntax-ns#"
   xmlns:svg="http://www.w3.org/2000/svg"
   xmlns="http://www.w3.org/2000/svg"
   xmlns:sodipodi="http://sodipodi.sourceforge.net/DTD/sodipodi-0.dtd"
   xmlns:inkscape="http://www.inkscape.org/namespaces/inkscape"
   sodipodi:docname="logo_avalon_lab.svg"
   inkscape:version="0.92.3 (2405546, 2018-03-11)"
   id="svg8"
   version="1.1"
   viewBox="0 0 235.87065 23.900825"
   height="90.333824"
   width="891.47968"
   inkscape:export-filename="C:\Users\jeffl\Desktop\logo_texte.png"
   inkscape:export-xdpi="96"
   inkscape:export-ydpi="96">
  <defs
     id="defs2" />
  <sodipodi:namedview
     guidetolerance="1"
     gridtolerance="1"
     objecttolerance="1"
     inkscape:window-maximized="1"
     inkscape:window-y="-8"
     inkscape:window-x="1912"
     inkscape:window-height="1387"
     inkscape:window-width="2560"
     inkscape:guide-bbox="true"
     showguides="true"
     showgrid="false"
     inkscape:current-layer="g3752"
     inkscape:document-units="mm"
     inkscape:cy="2.7463517"
     inkscape:cx="362.07826"
     inkscape:zoom="1"
     inkscape:pageshadow="2"
     inkscape:pageopacity="0"
     borderopacity="1.0"
     bordercolor="#666666"
     pagecolor="#FFFFFF"
     id="base"
     units="px" />
  <metadata
     id="metadata5">
    <rdf:RDF>
      <cc:Work
         rdf:about="">
        <dc:format>image/svg+xml</dc:format>
        <dc:type
           rdf:resource="http://purl.org/dc/dcmitype/StillImage" />
        <dc:title></dc:title>
      </cc:Work>
    </rdf:RDF>
  </metadata>
  <g
     inkscape:label="Calque 1"
     inkscape:groupmode="layer"
     id="layer1"
     transform="translate(-141.63208,-217.91325)">
    <g
       id="g3752"
       inkscape:export-xdpi="96"
       inkscape:export-ydpi="96"
       style="fill:#00223b;fill-opacity:1;stroke:none">
      <g
         id="g9849">
        <path
           inkscape:connector-curvature="0"
           id="path871"
           style="font-style:normal;font-variant:normal;font-weight:normal;font-stretch:normal;font-size:64px;line-height:1.25;font-family:'Jaapokki subtract';-inkscape-font-specification:'Jaapokki subtract';letter-spacing:0px;word-spacing:0px;fill:#003459;fill-opacity:1;stroke:none;stroke-width:0.48152295"
           d="m 141.63208,232.50719 v -3.1742 l 11.95718,-5.79369 1.54087,3.20503 -8.65971,4.19117 8.62889,4.25281 -1.57169,3.17421 z" />
        <path
           inkscape:connector-curvature="0"
           id="path873"
           style="font-style:normal;font-variant:normal;font-weight:normal;font-stretch:normal;font-size:64px;line-height:1.25;font-family:'Jaapokki subtract';-inkscape-font-specification:'Jaapokki subtract';letter-spacing:0px;word-spacing:0px;fill:#003459;fill-opacity:1;stroke:none;stroke-width:0.48152295"
           d="m 168.93106,218.60851 -11.00184,21.60306 h 4.83835 l 6.68739,-13.12825 6.16349,13.12825 h 4.77671 l -10.20058,-21.60306 z" />
        <path
           inkscape:connector-curvature="0"
           id="path875"
           style="font-style:normal;font-variant:normal;font-weight:normal;font-stretch:normal;font-size:64px;line-height:1.25;font-family:'Jaapokki subtract';-inkscape-font-specification:'Jaapokki subtract';letter-spacing:0px;word-spacing:0px;fill:#003459;fill-opacity:1;stroke:none;stroke-width:0.48152295"
           d="m 186.97036,240.21157 9.73832,-21.60306 h -4.77671 l -5.60878,12.26536 -5.6396,-12.26536 h -4.77671 l 9.76914,21.60306 z" />
        <path
           inkscape:connector-curvature="0"
           id="path877"
           style="font-style:normal;font-variant:normal;font-weight:normal;font-stretch:normal;font-size:64px;line-height:1.25;font-family:'Jaapokki subtract';-inkscape-font-specification:'Jaapokki subtract';letter-spacing:0px;word-spacing:0px;fill:#003459;fill-opacity:1;stroke:none;stroke-width:0.48152295"
           d="m 204.50357,218.60851 -11.00184,21.60306 h 4.83835 l 6.68739,-13.12825 6.16349,13.12825 h 4.77671 l -10.20058,-21.60306 z" />
        <path
           inkscape:connector-curvature="0"
           id="path879"
           style="font-style:normal;font-variant:normal;font-weight:normal;font-stretch:normal;font-size:64px;line-height:1.25;font-family:'Jaapokki subtract';-inkscape-font-specification:'Jaapokki subtract';letter-spacing:0px;word-spacing:0px;fill:#003459;fill-opacity:1;stroke:none;stroke-width:0.48152295"
           d="m 222.45571,218.60851 h -4.31445 v 21.57223 h 12.35781 v -4.28363 h -8.04336 z" />
        <path
           inkscape:connector-curvature="0"
           id="path881"
           style="font-style:normal;font-variant:normal;font-weight:normal;font-stretch:normal;font-size:64px;line-height:1.25;font-family:'Jaapokki subtract';-inkscape-font-specification:'Jaapokki subtract';letter-spacing:0px;word-spacing:0px;fill:#003459;fill-opacity:1;stroke:none;stroke-width:0.48152295"
           d="m 242.02095,218.20789 c -6.16349,0 -11.18674,5.02324 -11.18674,11.18674 0,6.16349 5.02325,11.18675 11.18674,11.18675 6.1635,0 11.18674,-5.02326 11.18674,-11.18675 0,-6.1635 -5.02324,-11.18674 -11.18674,-11.18674 z m 0,4.43772 c 3.72892,0 6.74903,3.0201 6.74903,6.74902 0,3.72891 -3.02011,6.74903 -6.74903,6.74903 -3.72891,0 -6.74902,-3.02012 -6.74902,-6.74903 0,-3.72892 3.02011,-6.74902 6.74902,-6.74902 z" />
        <path
           inkscape:connector-curvature="0"
           id="path883"
           style="font-style:normal;font-variant:normal;font-weight:normal;font-stretch:normal;font-size:64px;line-height:1.25;font-family:'Jaapokki subtract';-inkscape-font-specification:'Jaapokki subtract';letter-spacing:0px;word-spacing:0px;fill:#003459;fill-opacity:1;stroke:none;stroke-width:0.48152295"
           d="m 273.36039,240.21157 -12.14208,-12.60436 v 12.60436 h -4.31445 v -21.60306 h 1.35597 l 11.92636,12.08046 v -12.08046 h 4.31445 v 21.60306 z" />
        <path
           inkscape:connector-curvature="0"
           id="path885"
           style="font-style:normal;font-variant:normal;font-weight:normal;font-stretch:normal;font-size:64px;line-height:1.25;font-family:'Jaapokki subtract';-inkscape-font-specification:'Jaapokki subtract';letter-spacing:0px;word-spacing:0px;fill:#003459;fill-opacity:1;stroke:none;stroke-width:0.48152295"
           d="m 278.51221,231.24368 h 10.53957 v 3.57482 h -10.53957 z" />
        <path
           inkscape:connector-curvature="0"
           id="path887"
           style="font-style:normal;font-variant:normal;font-weight:normal;font-stretch:normal;font-size:64px;line-height:1.25;font-family:'Jaapokki subtract';-inkscape-font-specification:'Jaapokki subtract';letter-spacing:0px;word-spacing:0px;fill:#003459;fill-opacity:1;stroke:none;stroke-width:0.48152295"
           d="m 297.39272,218.60851 h -4.31444 v 21.57223 h 12.35781 v -4.28363 h -8.04337 z" />
        <path
           inkscape:connector-curvature="0"
           id="path891"
           style="font-style:normal;font-variant:normal;font-weight:normal;font-stretch:normal;font-size:64px;line-height:1.25;font-family:'Jaapokki subtract';-inkscape-font-specification:'Jaapokki subtract';letter-spacing:0px;word-spacing:0px;fill:#003459;fill-opacity:1;stroke:none;stroke-width:0.48152295"
           d="m 337.83296,236.51347 v 3.66727 h 1.54086 c 3.60564,0 6.53331,-2.89684 6.53331,-6.53329 0,-2.0956 -0.98617,-3.97546 -2.55786,-5.17734 0.70881,-1.01698 1.10943,-2.21886 1.10943,-3.54402 0,-3.48236 -2.83519,-6.31758 -6.31757,-6.31758 h -5.88615 v 12.6968 h 7.05722 c 1.44841,0 2.65029,1.17107 2.65029,2.61949 0,1.44841 -1.20188,2.58867 -2.65029,2.58867 z m -1.7566,-9.36852 v -4.93079 h 1.87986 c 1.20188,0 2.49622,0.92452 2.49622,2.43457 0,1.51007 -1.29434,2.49622 -2.49622,2.49622 z" />
        <path
           inkscape:connector-curvature="0"
           id="path893"
           style="font-style:normal;font-variant:normal;font-weight:normal;font-stretch:normal;font-size:64px;line-height:1.25;font-family:'Jaapokki subtract';-inkscape-font-specification:'Jaapokki subtract';letter-spacing:0px;word-spacing:0px;fill:#003459;fill-opacity:1;stroke:none;stroke-width:0.48152295"
           d="m 348.67251,241.07445 10.63203,-18.79865 1.66414,0.77043 -10.63202,18.76784 z" />
        <path
           inkscape:connector-curvature="0"
           id="path895"
           style="font-style:normal;font-variant:normal;font-weight:normal;font-stretch:normal;font-size:64px;line-height:1.25;font-family:'Jaapokki subtract';-inkscape-font-specification:'Jaapokki subtract';letter-spacing:0px;word-spacing:0px;fill:#003459;fill-opacity:1;stroke:none;stroke-width:0.48152295"
           d="m 364.06633,235.18831 8.62889,-4.25281 -8.65972,-4.19117 1.54088,-3.20503 11.92636,5.79369 v 3.1742 l -11.86472,5.85533 z" />
        <g
           id="g9219"
           transform="matrix(0.23969704,0,0,0.23969704,307.50712,171.85224)">
          <path
             id="path843"
             style="display:inline;fill:none;stroke:#003459;stroke-width:3.17499995;stroke-linecap:round;stroke-linejoin:round;stroke-miterlimit:4;stroke-dasharray:none;stroke-opacity:1"
             d="m 42.912397,220.15478 h 9.1159 m -9.1159,-7.97691 h 9.1159 m -9.1159,-7.43625 h 9.1159 M 80.170586,270.64649 61.021247,231.4632 V 196.9007 H 42.912438 v 34.57151 l -19.039022,39.54223 c -0.411273,0.85682 -0.825276,1.71597 -1.204152,2.54711 -0.477658,1.04774 -0.912568,2.06179 -1.262305,3.00814 -0.174827,0.47313 -0.328464,0.92952 -0.455408,1.36467 -0.126739,0.43516 -0.227398,0.84924 -0.295453,1.23794 -0.06846,0.38877 -0.104735,0.75184 -0.10392,1.0856 10e-4,0.33376 0.04075,0.63814 0.119812,0.90853 0.0811,0.2706 0.20417,0.50684 0.365141,0.71386 0.160565,0.20702 0.359029,0.3843 0.588955,0.53647 0.229842,0.152 0.492003,0.27874 0.780612,0.38429 0.288527,0.10555 0.603868,0.19032 0.940442,0.25756 0.673107,0.13529 1.431387,0.20294 2.232375,0.23677 0.800947,0.0326 1.644603,0.0326 2.488177,0.0326 h 23.899192 25.559485 m 0,0 c 2.869538,-0.0367 5.462244,-0.28934 6.020756,-2.15698 0.632355,-2.11485 -1.343443,-6.29788 -3.376497,-10.52598"
             inkscape:connector-curvature="0" />
          <path
             style="fill:#003459;fill-opacity:1;fill-rule:evenodd;stroke:none;stroke-width:0.95511073;stroke-miterlimit:4;stroke-dasharray:none;stroke-opacity:1"
             d="m 206.50781,179.58594 c -11.18455,3.5e-4 -20.2514,9.48605 -20.25195,21.1875 h 5.20898 v 14.66211 h -5.7539 v 18.48633 h 6.85742 l -4.4707,66.13085 -2.43946,-0.58789 -20.71679,-6.25781 -5.76758,5.4082 -13.79492,-6.4707 -5.56836,12.82422 -6.30469,6.44727 -7.625,7.60351 -6.66406,2.61328 -0.0625,0.0293 -17.39258,11.41992 172.78125,-0.0566 -32.39063,-15.4043 -9.82031,-0.01 v -14.36719 h -7.41406 l -4.70508,-69.32226 h 7.0918 v -18.48633 h -5.75391 v -14.66211 h 5.21094 c -5.5e-4,-11.70225 -9.06859,-21.18828 -20.25391,-21.1875 z m 37.05664,20.15039 -16.40625,8.90234 16.40625,6.81641 z m -74.26757,0.006 v 15.71875 l 16.40624,-6.81446 z m 21.03515,20.31445 h 4.62109 v 9.24414 h -4.62109 z m 9.24219,0 h 4.62305 v 9.24414 h -4.62305 z m 9.24414,0 h 4.62109 v 9.24414 h -4.62109 z m 9.24219,0 h 4.62109 v 9.24414 h -4.62109 z m -23.63282,13.86914 23.74415,0.0117 1.29687,18.51562 -26.19336,-0.0723 z m 26.00586,36.7461 1.31836,18.66601 -30.57812,-0.008 1.18164,-18.62305 z"
             transform="matrix(0.26458333,0,0,0.26458333,0,191.16665)"
             id="rect1430"
             inkscape:connector-curvature="0" />
        </g>
      </g>
    </g>
  </g>
</svg>
